<?xml version="1.0" standalone="no"?><!DOCTYPE svg PUBLIC "-//W3C//DTD SVG 1.1//EN" "http://www.w3.org/Graphics/SVG/1.1/DTD/svg11.dtd"><svg t="1670620023511" class="icon" viewBox="0 0 1024 1024" version="1.1" xmlns="http://www.w3.org/2000/svg" p-id="2697" width="64" height="64" xmlns:xlink="http://www.w3.org/1999/xlink"><path d="M707.84 384H640V170.666667c0-23.466667-19.2-42.666667-42.666667-42.666667h-170.666666c-23.466667 0-42.666667 19.2-42.666667 42.666667v213.333333H316.16c-37.973333 0-57.173333 46.08-30.293333 72.96l195.84 195.84c16.64 16.64 43.52 16.64 60.16 0l195.84-195.84c26.88-26.88 8.106667-72.96-29.866667-72.96zM213.333333 810.666667c0 23.466667 19.2 42.666667 42.666667 42.666666h512c23.466667 0 42.666667-19.2 42.666667-42.666666s-19.2-42.666667-42.666667-42.666667H256c-23.466667 0-42.666667 19.2-42.666667 42.666667z" fill="#ffffff" p-id="2698"></path></svg>